<svg version="1.1" id="Layer_1" xmlns="http://www.w3.org/2000/svg" xmlns:xlink="http://www.w3.org/1999/xlink" x="0px" y="0px"
	 width="100%" viewBox="0 0 84 60" enable-background="new 0 0 84 60" xml:space="preserve">
<path fill="#F8F8F8" opacity="1.000000" stroke="none" 
	d="
M59.000011,61.000000 
	C39.333347,61.000000 20.166683,61.000000 1.000016,61.000000 
	C1.000011,41.000011 1.000011,21.000023 1.000005,1.000027 
	C28.999983,1.000018 56.999966,1.000018 84.999954,1.000009 
	C84.999969,20.999977 84.999969,40.999954 84.999985,60.999966 
	C76.500008,61.000000 68.000008,61.000000 59.000011,61.000000 
M83.001526,36.499825 
	C83.001396,27.179754 82.860291,17.856556 83.067078,8.541080 
	C83.155922,4.538898 81.979759,2.896493 77.707962,2.925219 
	C54.575245,3.080772 31.440676,3.054007 8.307440,2.943750 
	C4.559808,2.925889 2.889247,3.967449 2.932982,8.025468 
	C3.097983,23.335243 3.066603,38.648373 2.949261,53.959026 
	C2.922048,57.509720 4.006416,59.071167 7.792007,59.054005 
	C31.258142,58.947605 54.725239,58.947960 78.191383,59.053516 
	C81.959770,59.070465 83.167145,57.548870 83.048622,53.974674 
	C82.866692,48.488529 83.001266,42.991886 83.001526,36.499825 
z"/>
<path fill="#FEFDFE" opacity="1.000000" stroke="none" 
	d="
M83.001526,36.999763 
	C83.001266,42.991886 82.866692,48.488529 83.048622,53.974674 
	C83.167145,57.548870 81.959770,59.070465 78.191383,59.053516 
	C54.725239,58.947960 31.258142,58.947605 7.792007,59.054005 
	C4.006416,59.071167 2.922048,57.509720 2.949261,53.959026 
	C3.066603,38.648373 3.097983,23.335243 2.932982,8.025468 
	C2.889247,3.967449 4.559808,2.925889 8.307440,2.943750 
	C31.440676,3.054007 54.575245,3.080772 77.707962,2.925219 
	C81.979759,2.896493 83.155922,4.538898 83.067078,8.541080 
	C82.860291,17.856556 83.001396,27.179754 83.001526,36.999763 
M22.628115,45.016941 
	C24.161701,45.698883 25.695288,46.380825 27.228874,47.062767 
	C26.982496,45.487995 27.041666,43.778259 26.419422,42.369507 
	C25.441782,40.156143 24.004875,38.145641 22.762442,36.049236 
	C22.190874,36.094501 21.619307,36.139771 21.047737,36.185036 
	C20.951624,37.642593 20.655125,39.121979 20.810934,40.552090 
	C20.998920,42.277538 21.570616,43.961178 21.327223,45.274704 
	C20.084421,43.197067 18.841619,41.119434 17.597326,39.039303 
	C13.802560,41.430733 14.492330,43.943142 20.337177,50.679428 
	C24.452375,50.097839 22.313023,47.555511 22.628115,45.016941 
M63.139423,47.730259 
	C63.831421,48.855030 64.523415,49.979801 65.394218,51.395199 
	C72.240967,42.073639 72.441887,41.165642 68.838348,39.514091 
	C67.140862,41.090900 65.551483,42.567284 63.876347,43.289104 
	C64.306541,42.393566 64.959663,41.534012 65.111481,40.593536 
	C65.308929,39.370396 65.108109,38.082966 65.078697,36.823200 
	C63.967972,37.387722 62.655174,37.744144 61.801369,38.573246 
	C60.883503,39.464558 60.231087,40.736057 59.762745,41.956734 
	C59.161446,43.523945 58.859066,45.205845 58.427902,46.838333 
	C59.971722,46.890896 61.515541,46.943462 63.139423,47.730259 
M22.120728,18.710785 
	C19.416147,24.126648 19.416147,24.126648 23.044628,25.541271 
	C24.103870,23.742159 25.346657,21.971252 26.222736,20.034470 
	C26.909054,18.517193 27.141266,16.794506 27.575233,15.163082 
	C26.030552,15.110131 24.485868,15.057180 22.858669,14.270312 
	C22.162464,13.138955 21.466257,12.007598 20.604605,10.607387 
	C13.769316,19.885397 13.560550,20.830090 17.162067,22.488768 
	C18.859510,20.910999 20.449043,19.433531 22.120728,18.710785 
M63.673138,16.064711 
	C65.312729,18.287094 66.952316,20.509478 69.258751,23.635735 
	C70.014053,21.937946 71.273476,20.458158 70.937691,19.609577 
	C69.912048,17.017536 68.339760,14.625067 66.815834,12.260871 
	C66.507011,11.781764 65.275238,11.384977 64.828659,11.623551 
	C64.100395,12.012608 63.432594,12.879899 63.173149,13.685181 
	C62.876823,14.604948 63.055134,15.677629 62.364101,16.341331 
	C61.254105,15.820031 60.144104,15.298732 59.034107,14.777433 
	C58.971344,16.019917 58.464619,17.471340 58.931946,18.464350 
	C60.163219,21.080629 61.817635,23.497770 63.303543,25.994213 
	C63.849026,25.968943 64.394508,25.943672 64.939987,25.918402 
	C65.117584,24.560863 65.695961,23.100058 65.378998,21.869953 
	C64.901764,20.017836 63.798378,18.327057 63.673138,16.064711 
M56.961014,31.184929 
	C56.294373,22.074810 49.673130,16.087175 41.336464,17.055542 
	C33.246983,17.995195 28.163498,25.225901 29.569672,34.714821 
	C32.350723,41.968269 37.892822,45.727100 44.655750,44.946690 
	C51.286892,44.181484 55.762241,39.410069 56.961014,31.184929 
z"/>
<path fill="#DC1F45" opacity="1.000000" stroke="none" 
	d="
M29.461720,33.946079 
	C28.163498,25.225901 33.246983,17.995195 41.336464,17.055542 
	C49.673130,16.087175 56.294373,22.074810 56.604435,31.372047 
	C52.247234,27.814589 47.775925,27.804054 44.150604,31.530672 
	C37.819302,38.038887 37.571175,38.079685 29.461720,33.946079 
z"/>
<path fill="#144D9D" opacity="1.000000" stroke="none" 
	d="
M29.515696,34.330452 
	C37.571175,38.079685 37.819302,38.038887 44.150604,31.530672 
	C47.775925,27.804054 52.247234,27.814589 56.533554,31.768841 
	C55.762241,39.410069 51.286892,44.181484 44.655750,44.946690 
	C37.892822,45.727100 32.350723,41.968269 29.515696,34.330452 
z"/>
<path fill="#6C6C6C" opacity="1.000000" stroke="none" 
	d="
M63.027187,16.683861 
	C63.055134,15.677629 62.876823,14.604948 63.173149,13.685181 
	C63.432594,12.879899 64.100395,12.012608 64.828659,11.623551 
	C65.275238,11.384977 66.507011,11.781764 66.815834,12.260871 
	C68.339760,14.625067 69.912048,17.017536 70.937691,19.609577 
	C71.273476,20.458158 70.014053,21.937946 69.258751,23.635735 
	C66.952316,20.509478 65.312729,18.287094 63.333626,16.345348 
	C62.994118,16.625988 63.027187,16.683861 63.027187,16.683861 
z"/>
<path fill="#6B6B6B" opacity="1.000000" stroke="none" 
	d="
M22.038574,17.956064 
	C20.449043,19.433531 18.859510,20.910999 17.162067,22.488768 
	C13.560550,20.830090 13.769316,19.885397 20.604605,10.607387 
	C21.466257,12.007598 22.162464,13.138955 22.917622,14.626367 
	C22.976572,14.982421 23.011793,14.960080 22.620144,15.100280 
	C22.151943,16.174416 22.075394,17.108351 22.001301,18.017284 
	C22.003756,17.992285 22.038574,17.956064 22.038574,17.956064 
z"/>
<path fill="#6B6B6B" opacity="1.000000" stroke="none" 
	d="
M63.962109,44.043671 
	C65.551483,42.567284 67.140862,41.090900 68.838348,39.514091 
	C72.441887,41.165642 72.240967,42.073639 65.394218,51.395199 
	C64.523415,49.979801 63.831421,48.855030 63.081585,47.374100 
	C63.023746,47.017937 62.988174,47.040188 63.379555,46.899338 
	C63.847630,45.824978 63.924320,44.891468 63.998878,43.982834 
	C63.996746,44.007713 63.962109,44.043671 63.962109,44.043671 
z"/>
<path fill="#6C6C6C" opacity="1.000000" stroke="none" 
	d="
M21.943806,45.568104 
	C22.313023,47.555511 24.452375,50.097839 20.339127,50.680038 
	C14.492330,43.943142 13.802560,41.430733 17.597326,39.039303 
	C18.841619,41.119434 20.084421,43.197067 21.654987,45.439781 
	C21.982750,45.604855 21.943806,45.568104 21.943806,45.568104 
z"/>
<path fill="#6B6B6B" opacity="1.000000" stroke="none" 
	d="
M22.285961,45.292522 
	C21.943806,45.568104 21.982750,45.604855 21.979488,45.633884 
	C21.570616,43.961178 20.998920,42.277538 20.810934,40.552090 
	C20.655125,39.121979 20.951624,37.642593 21.047737,36.185036 
	C21.619307,36.139771 22.190874,36.094501 22.762442,36.049236 
	C24.004875,38.145641 25.441782,40.156143 26.419422,42.369507 
	C27.041666,43.778259 26.982496,45.487995 27.228874,47.062767 
	C25.695288,46.380825 24.161701,45.698883 22.285961,45.292522 
z"/>
<path fill="#6A6A6A" opacity="1.000000" stroke="none" 
	d="
M22.958879,14.993325 
	C24.485868,15.057180 26.030552,15.110131 27.575233,15.163082 
	C27.141266,16.794506 26.909054,18.517193 26.222736,20.034470 
	C25.346657,21.971252 24.103870,23.742159 23.044628,25.541271 
	C19.416147,24.126648 19.416147,24.126648 22.079651,18.333424 
	C22.038574,17.956064 22.003756,17.992285 22.391140,17.875713 
	C22.856281,16.826120 22.934038,15.893101 23.011793,14.960080 
	C23.011793,14.960080 22.976572,14.982421 22.958879,14.993325 
z"/>
<path fill="#6A6A6A" opacity="1.000000" stroke="none" 
	d="
M63.041553,47.006981 
	C61.515541,46.943462 59.971722,46.890896 58.427902,46.838333 
	C58.859066,45.205845 59.161446,43.523945 59.762745,41.956734 
	C60.231087,40.736057 60.883503,39.464558 61.801369,38.573246 
	C62.655174,37.744144 63.967972,37.387722 65.078697,36.823204 
	C65.108109,38.082966 65.308929,39.370396 65.111481,40.593536 
	C64.959663,41.534012 64.306541,42.393566 63.919228,43.666389 
	C63.962109,44.043671 63.996746,44.007713 63.608768,44.123779 
	C63.143253,45.173294 63.065712,46.106743 62.988174,47.040188 
	C62.988174,47.040188 63.023746,47.017937 63.041553,47.006981 
z"/>
<path fill="#6B6B6B" opacity="1.000000" stroke="none" 
	d="
M62.695644,16.512596 
	C63.027187,16.683861 62.994118,16.625988 62.977646,16.596840 
	C63.798378,18.327057 64.901764,20.017836 65.378998,21.869953 
	C65.695961,23.100058 65.117584,24.560863 64.939987,25.918402 
	C64.394508,25.943672 63.849026,25.968943 63.303543,25.994213 
	C61.817635,23.497770 60.163219,21.080629 58.931946,18.464350 
	C58.464619,17.471340 58.971344,16.019917 59.034107,14.777433 
	C60.144104,15.298732 61.254105,15.820031 62.695644,16.512596 
z"/>
<path fill="#FEFDFE" opacity="1.000000" stroke="none" 
	d="
M22.620144,15.100280 
	C22.934038,15.893101 22.856281,16.826120 22.388685,17.900715 
	C22.075394,17.108351 22.151943,16.174416 22.620144,15.100280 
z"/>
<path fill="#FEFDFE" opacity="1.000000" stroke="none" 
	d="
M63.379555,46.899338 
	C63.065712,46.106743 63.143253,45.173294 63.610901,44.098904 
	C63.924320,44.891468 63.847630,45.824978 63.379555,46.899338 
z"/>
</svg>